<svg width="16" height="16" viewBox="0 0 16 16" fill="none" xmlns="http://www.w3.org/2000/svg">
<g clip-path="url(#clip0_2120_6549)">
<path d="M13.3333 9.33332C14.0697 9.33332 14.6667 8.73637 14.6667 7.99999C14.6667 7.26361 14.0697 6.66666 13.3333 6.66666C12.597 6.66666 12 7.26361 12 7.99999C12 8.73637 12.597 9.33332 13.3333 9.33332Z" fill="black"/>
<path d="M2.66671 9.33332C3.40309 9.33332 4.00004 8.73637 4.00004 7.99999C4.00004 7.26361 3.40309 6.66666 2.66671 6.66666C1.93033 6.66666 1.33337 7.26361 1.33337 7.99999C1.33337 8.73637 1.93033 9.33332 2.66671 9.33332Z" fill="black"/>
<path d="M7.99996 14.6667C8.73634 14.6667 9.33329 14.0697 9.33329 13.3333C9.33329 12.597 8.73634 12 7.99996 12C7.26358 12 6.66663 12.597 6.66663 13.3333C6.66663 14.0697 7.26358 14.6667 7.99996 14.6667Z" fill="black"/>
<path d="M6.69999 5.72668L4.01999 3.03335H4.01333L3.80666 2.82001L2.85999 3.76001L5.53999 6.46001L5.54666 6.45335L5.75333 6.66668L6.69999 5.72668ZM9.29533 5.74468L12.232 2.81668L13.1733 3.76001L10.2367 6.68868L9.29533 5.74468ZM6.67333 10.24L5.72666 9.30001L3.03999 11.9733L2.82666 12.1933L3.76666 13.1333L6.45333 10.4533L6.67333 10.24ZM13.1733 12.2L10.5133 9.52668L10.2733 9.29335L9.33333 10.2333L11.9933 12.9067L12.2267 13.14L13.1733 12.2Z" fill="black"/>
<path d="M7.99996 4.00001C8.73634 4.00001 9.33329 3.40306 9.33329 2.66668C9.33329 1.9303 8.73634 1.33334 7.99996 1.33334C7.26358 1.33334 6.66663 1.9303 6.66663 2.66668C6.66663 3.40306 7.26358 4.00001 7.99996 4.00001Z" fill="black"/>
</g>
<defs>
<clipPath id="clip0_2120_6549">
<rect width="16" height="16" fill="white"/>
</clipPath>
</defs>
</svg>
