<svg width="13" height="12" viewBox="0 0 13 12" fill="none" xmlns="http://www.w3.org/2000/svg">
    <path d="M12 10V10.6667C12 11.4 11.4 12 10.6667 12H1.33333C0.593333 12 0 11.4 0 10.6667V1.33333C0 0.6 0.593333 0 1.33333 0H10.6667C11.4 0 12 0.6 12 1.33333V2H6C5.26 2 4.66667 2.6 4.66667 3.33333V8.66667C4.66667 9.4 5.26 10 6 10H12ZM6 8.66667H12.6667V3.33333H6V8.66667ZM8.66667 7C8.11333 7 7.66667 6.55333 7.66667 6C7.66667 5.44667 8.11333 5 8.66667 5C9.22 5 9.66667 5.44667 9.66667 6C9.66667 6.55333 9.22 7 8.66667 7Z" fill="black"/>
</svg>
