<svg xmlns="http://www.w3.org/2000/svg" viewBox="0 0 821.28 326.62"><defs><style>.cls-1{fill:#fffdf1;}</style></defs><g id="Layer_2" data-name="Layer 2"><g id="Layer_1-2" data-name="Layer 1"><path class="cls-1" d="M250.07,309.19C248.28,319,274,333.81,276,322.6c1.52-8.31,18.41-107.11,22.84-136,9.29-2.62,52.15-11.51,64.25-13.09,3-.4,4.26-2.1,4.37-4.18q13.18,2.63,26.5,4.46l-95.7,57.69c-9.92,6.79,12.33,26.83,21.33,20,22.15-16.94,83.13-50.11,83.13-50.11-2.28,10.63-4.43,21.28-6.83,31.88-2.16,9.5,24.56,19.85,25.94,13.42q5.52-25.73,11-51.45c3.37,1.58,7,2.35,10,.86l5.6-2.71s-11.23,46.05-11.85,52.73c-1.54,16.55,22.74,28.92,27.07,26.43l76.44-44.05c.33,9.84,19.77,20.53,30.61,16.51,5.53-2.05,27.68-23.32,34.94-28.95q-1,7.81-2,15.63c.43,9.13,15,24.38,20.32,20.53,19.79-14.41,39.59-30.25,61.18-42.41-.05.85-.44,16.7,2.75,23.28,2.42,5,15.51,18.46,22.82,11.86,29.27-26.44,62.86-47.6,98.92-63.58,10.55-4.68-9.62-25.58-19.12-21.37A393.46,393.46,0,0,0,711,207.21c.15-2,.64-8.5.74-9.83,2.57-.93,5.18-1.8,7.81-2.59,2.3-.69,2.53-3.57,2.72-5.57.31-3.31-5.46-12.21-9-12.44l1.14-15.16a356.89,356.89,0,0,1,76.05-14.84c6.53-.55,5.59-7.45,2.79-11.58-3.44-5.09-10.5-11.32-17.24-10.75a377.11,377.11,0,0,0-59.55,9.85q1.39-18.66,2.8-37.34a401.84,401.84,0,0,1,97.14-15.34C823,81.4,821.82,74,819.17,70c-3.61-5.33-10.37-11-17.25-10.75a417.09,417.09,0,0,0-82.48,11.12c.21-8.62-22.62-15.38-23.13-8.64L695.17,77A416.66,416.66,0,0,0,652.49,92.5c1.3-7.73,9.82-57.78,12.8-75.08C667,7.57,641.27-7.17,639.35,4c-10,58.13-20,116.28-28.48,174.67-15.2,8.07-29,18.79-42,30.12.85-5.88,26.23-103.37,29.76-117.81,2.63-10.79-8.81-19.76-18.36-23.33-8.83-3.29-68.4,21.34-79.63,26.05,1.06-4.54,2.34-9,3.16-13.64,1.58-8.72-16.35-16.8-18.83-17.17,10.85-1.36,67-5.59,84.2-5.83,6.89-.1-2.24-20.85-16.79-21.14-28.21-.58-58.29,2.36-86.27,5.87.68-.7,1-4.41,1.8-9.18C468.8,27,443.67,18.5,441.13,24c-1.73,3.73-4.48,19.11-5.22,22.55-22.34,3.76-97.21,18.6-117.63,29.42-2.1,1.11,10.27,23.91,21.33,19.95,29.53-10.6,60.11-18,90.9-24.16-.84,3.92-12.91,60.2-18.1,84.42-2-.31-4.06-.46-6.16-.64-13.29-1.14-96.82-19.24-97.47-19.45,21.73-14,89.26-20.71,108.69-20.2,5.93.16-6.83-18.57-17.86-19.11-30.2-1.48-60.56.89-89.23,10.27.1-.72,3.9-21.8,4.19-31.73.71-25.4-21.14-47.64-29.28-36.09s-16.05,23.42-23,35.73c-3.36-1.63-7.13-2.59-10.53-1.23a72.4,72.4,0,0,0-16.48,9.49c-4.1-3.18-9.22-5.18-13.89-5q-23.61.69-47.09,3.7a27.24,27.24,0,0,0-7.13-5.17c-4.14-2-12.21-4.81-13.9,1.51q-1,3.58-1.93,7.15C115.6,91.62,35.43,111.94,2.12,137.42c-8.88,6.78,12.44,24.79,21.33,19.94a477.16,477.16,0,0,1,120.65-46q-12,42.27-25.45,84.11L114.43,200c-1.57,1.67-.34,5.32.53,6.87h0c-2,6.2-15.62,45.91-20.4,59.57-3.71,10.6,23.62,20.74,26,13.41,7-22.09,15.73-46,22.43-65.83,17.74-14.66,83.71-79.81,86.64-83.11-9.64,21.87-20.32,43.37-29.46,65.46q-6.87,3.38-13.63,7c-5.36,2.85-1.17,10,5.19,15-3,8.56-5.11,17.4-7.93,26-3.51,10.75,21.86,22.85,25.23,15.35,7.38-16.38,16-32.12,23.2-48.56,11.25-5.17,36.22-14.84,37.17-15.18C266.52,213.9,250.4,307.38,250.07,309.19ZM163.37,148c1.43-4.85,9.55-33.33,12.13-42.75,4.29-.69,25.59-3.48,32-4.07C206.53,102.12,169.79,141.15,163.37,148Zm117.11-26a11,11,0,0,0-2.07,9.52c.12.54-3.43,28.13-4.66,36.2q-13.49,4-26.7,8.74C258.27,150,283.76,97.6,283.93,97.28Q282.24,109.64,280.48,122Zm22.36,38.14c.39-2.63.77-5.27,1.16-7.91,1.61.55,3.23,1.08,4.84,1.61q4.74,1.59,9.52,3.05Q310.58,158.37,302.84,160.12ZM456.23,160q-8.81,3.9-17.52,7.95l7.56-35.29.08.07c3.38,3,9.26,7.14,14.55,7.11ZM449.83,116q3.62-16.87,7.24-33.76,1.69-7.95,3.41-15.89,9.7-1.55,19.46-2.82a4.65,4.65,0,0,0-2.09,3.11l-9.5,41Q459.07,111.79,449.83,116ZM543,194.85c-.56.14-51.1,29.15-75.86,43.42.21-.89,12.37-53.35,13.88-59.88q26.7-11.69,54-21.85c2.23-.83,2.53-3.68,2.11-5.6-.66-2.92-3.2-6.08-5.34-8-4.5-4-11.78-8.69-18.1-6.35q-12.72,4.72-25.3,9.78l4.7-20.29c17.47-7.71,73.57-30.47,73.79-30.55C565.74,99,543.28,192.92,543,194.85Zm147.31-53q-14.25,4.68-28.11,10.49c-10.54,4.44,9.52,25.42,19.12,21.38q3.39-1.42,6.81-2.78c-.18,2.33-.35,4.67-.53,7-18.94,7.62-36.34,18.86-53.1,30.92-.14-1.8,1.35-9.89,1.69-12.25,3.55-1.74,20-12.43,21.81-14.42,6.82-4.06-10.16-17.13-17.66-13.7q3.92-25.85,8.15-51.63c3.94,2.52,8.17,3.78,11.24,2.35q16.38-7.62,33.31-13.75Z"/></g></g></svg>