<svg id="Layer_1" data-name="Layer 1" xmlns="http://www.w3.org/2000/svg" viewBox="0 0 47.34 47.25"><defs><style>.cls-1{fill:#1d1d1b;}.cls-2{fill:#f3d600;}.cls-3{fill:#e61579;}</style></defs><circle class="cls-1" cx="23.86" cy="23.77" r="23.48"/><path class="cls-2" d="M45,25.42,45,25.35l-1.65-2.13h0V18.16a.79.79,0,0,0-.1-.37l-.76-1.22a.74.74,0,0,0-.62-.36H40.73c.59-1.29.76-1.65.8-1.73h0L42,13.34a.67.67,0,0,0,0-.63l-.77-1.27a.72.72,0,0,0-.3-.27L36.52,9a.15.15,0,0,0-.19.06l-.68,1.32c0,.05-.09.16-.79,1.68l0-1.2a.14.14,0,0,0-.09-.13L30.05,8.79a.14.14,0,0,0-.18.08l-.56,1.36c0,.12-.15.37-1.9,5.39a.73.73,0,0,1-.69.49L16.46,16a.73.73,0,0,1-.54-.24c-4.53-4.91-8.27-9-8.33-9.11L3.18,1a1.69,1.69,0,0,0-3,1h0a.69.69,0,0,0,0,.24l7.34,20a.7.7,0,0,1-.57.94l-2.33.34a.7.7,0,0,0-.61.8l.7,4.36a.82.82,0,0,0,.1.26l.74,1.21a.73.73,0,0,0,.73.34l3.47-.5a.75.75,0,0,1,.8.47l2.74,7.46a.34.34,0,0,0,.06.12l.72,1.19a.75.75,0,0,0,.87.31l3.81-1.31a.7.7,0,0,0,.44-.9l-1.73-4.72a.7.7,0,0,1,.62-.94c1.3-.09,2.53-.2,3.66-.31a.14.14,0,0,1,.14.18l-.5,1.45L21,34.16a.68.68,0,0,0,.06.59L21.79,36a.76.76,0,0,0,.39.31l1.37.46-.42.92a0,0,0,0,0,0,0l-.45,2a1,1,0,0,0,1,1.19.14.14,0,0,1,.15.16v0a1.14,1.14,0,0,0,1.79,1.14l20-14.69a.7.7,0,0,0,.18-.93Zm-8.26-.58.57-1.25a.72.72,0,0,1,.66-.41h1Zm-23.4-3.41.64.69-.37.05Z" transform="translate(-0.14 -0.32)"/><path class="cls-3" d="M21.66,24.71a.14.14,0,0,0,.08-.23l-1.13-1.22C15.08,17.3,6.6,8.1,5.92,7.19L2.27,2.32A.14.14,0,0,0,2,2.45L9.77,23.51a.7.7,0,0,1-.57.93l-2.69.39a.7.7,0,0,0-.6.8l.1.6a.73.73,0,0,0,.83.6l3.35-.48a.73.73,0,0,1,.79.47l3.09,8.39a.74.74,0,0,0,.93.44l.58-.2a.7.7,0,0,0,.44-.91l-2.85-7.76a.73.73,0,0,0-.65-.47l-1.45-.08ZM10.39,15.2c2.29,2.5,4.75,5.16,6.48,7a.7.7,0,0,1-.42,1.17l-3.71.53a.73.73,0,0,1-.79-.46L9.17,15.91A.72.72,0,0,1,10.39,15.2Z" transform="translate(-0.14 -0.32)"/><path class="cls-3" d="M31.84,19.78c.68,0,1,.54.82,1-2.72,5.95-5.79,12.68-6.38,14l-1.43,3.12a.14.14,0,0,0,.22.17l17-12.56a.69.69,0,0,0,.13-1L41.87,24a.73.73,0,0,0-1-.14l-8.78,6.46a.72.72,0,0,1-1.1-.86l4.22-9.24a.72.72,0,0,1,.66-.41l4,0a.71.71,0,0,0,.72-.7v-.61a.74.74,0,0,0-.73-.72l-2.87,0a.72.72,0,0,0-.62.34l-.94,1.52C36.93,16.44,38.87,12.22,39,12h0l-1.18-.59a.73.73,0,0,0-1,.32l-2.57,5.61a.74.74,0,0,1-.66.42l-1.95,0a.72.72,0,0,1-.69-.95l1.6-4.55a.7.7,0,0,0-.41-.89l-.51-.2a.74.74,0,0,0-1,.37c-.37,1.06-1.12,3.18-2,5.72a.73.73,0,0,1-.68.48L18,17.65a.71.71,0,0,0-.5,1.22l5.84,5.57a.7.7,0,0,1-.41,1.21c-1.73.21-4,.45-6.53.62a.71.71,0,0,0-.67.75l0,.53a.77.77,0,0,0,.8.75c2.94-.21,5.52-.49,7.36-.73a.73.73,0,0,1,.78.95c-.65,1.86-1.18,3.4-1.49,4.3a.7.7,0,0,0,.45.89l.52.17a.74.74,0,0,0,1-.4c.63-1.81,1.37-4,2.05-5.93a.13.13,0,0,0-.13-.18H25.19l3.57-.53L27.84,26a.12.12,0,0,1,0-.14c.66-1.92,1.32-3.82,1.94-5.58a.69.69,0,0,1,.68-.47ZM25.3,23.53l-2.72-2.6a.7.7,0,0,1,.5-1.21l3.62,0a.71.71,0,0,1,.69.94c-.3.85-.6,1.72-.9,2.58A.72.72,0,0,1,25.3,23.53Z" transform="translate(-0.14 -0.32)"/></svg>