<svg xmlns="http://www.w3.org/2000/svg" viewBox="0 0 702.09 510.69"><defs><style>.cls-1{fill:#fffdf1;}</style></defs><g id="Layer_2" data-name="Layer 2"><g id="Layer_1-2" data-name="Layer 1"><path class="cls-1" d="M341.13,269.91l-40.61-30.33C245,198.12,97.7,87.56,82.68,74.1L0,0,142.88,233l-133-3-.73,32.42,153.91,3.45L313.12,510.69l27.65-17L201.62,266.79Zm-209-116.41c36,27.33,78.15,59,108.45,81.73l-59.15-1.33Z"/><path class="cls-1" d="M469.42,500.16,702.09,231.73l-24.51-21.24L528.05,383C541.6,320.7,559,240.83,573.61,173.78l80-16.79-6.67-31.74-65.72,13.8c12.06-55.18,20.95-95.63,21.91-99.33v0l-31.32-8.38c-1,3.84-11.71,52.46-25.38,115l-52.44,11c7.13-57.56,12.35-99,13.07-103.2L475.1,48.51c-.87,4.93-7.05,54.2-14.69,115.9L273.18,203.73l130.64,82.73H250.05v32.43H441.41c-6.61,53.95-12,97.94-13.48,110.3l32.19,3.93c4.27-35.09,9.09-74.47,14-114.23h34.73c-12.67,58.24-23,105.89-25.93,119.26ZM358,219.06l98.22-20.63c-3.11,25.22-6.34,51.45-9.45,76.83Zm119.08,75.4c4.38-35.64,8.72-70.94,12.68-103.07l49.07-10.31c-9.59,44-20,91.62-29.18,134Z"/></g></g></svg>